<svg width="33" height="32" viewBox="0 0 33 32" fill="none" xmlns="http://www.w3.org/2000/svg">
<path d="M4.2002 9.33333C4.2002 6.81917 4.2002 5.56209 4.98125 4.78105C5.76229 4 7.01937 4 9.53353 4H16.2002H22.8669C25.381 4 26.6381 4 27.4191 4.78105C28.2002 5.56209 28.2002 6.81917 28.2002 9.33333V13.3333V17.3333C28.2002 19.8475 28.2002 21.1045 27.4191 21.8856C26.6381 22.6667 25.381 22.6667 22.8669 22.6667H16.2002H9.53353C7.01937 22.6667 5.76229 22.6667 4.98125 21.8856C4.2002 21.1045 4.2002 19.8475 4.2002 17.3333V13.3333V9.33333Z" stroke="#5577FF" stroke-width="2.66667" stroke-linecap="round" stroke-linejoin="round"/>
<path d="M17.9778 22.6667L19.7556 25.3334C20.5155 26.4733 19.6984 28.0001 18.3284 28.0001H16.2H14.0716C12.7017 28.0001 11.8846 26.4733 12.6445 25.3334L14.4223 22.6667" stroke="#5577FF" stroke-width="2.66667" stroke-linecap="round" stroke-linejoin="round"/>
<path d="M4.2002 17.3333H28.2002" stroke="#5577FF" stroke-width="2.66667" stroke-linecap="round" stroke-linejoin="round"/>
</svg>
