<svg width="32" height="32" viewBox="0 0 32 32" fill="none" xmlns="http://www.w3.org/2000/svg">
<path fill-rule="evenodd" clip-rule="evenodd" d="M20.0317 29.3333C21.7025 29.3333 23.1362 29.2456 24.3341 28.9793C25.5473 28.7097 26.5989 28.2397 27.4191 27.4195C28.2394 26.5992 28.7094 25.5476 28.979 24.3344C29.2452 23.1365 29.333 21.7028 29.333 20.032V16C29.333 14.5272 28.1391 13.3333 26.6663 13.3333H15.9997C14.5269 13.3333 13.333 14.5272 13.333 16V26.6667C13.333 28.1395 14.5269 29.3333 15.9997 29.3333H20.0317Z" fill="#F7F7F7"/>
<path fill-rule="evenodd" clip-rule="evenodd" d="M2.66602 20.032C2.66602 21.7028 2.7538 23.1365 3.02004 24.3344C3.28964 25.5476 3.75963 26.5992 4.57992 27.4195C5.40021 28.2397 6.45178 28.7097 7.66487 28.9793C7.78105 29.0051 7.89781 29.0293 8.01505 29.052C9.46106 29.3313 10.666 28.1075 10.666 26.6347V16C10.666 14.5272 9.4721 13.3333 7.99934 13.3333H5.33268C3.85992 13.3333 2.66602 14.5272 2.66602 16V20.032Z" fill="#F7F7F7"/>
<path fill-rule="evenodd" clip-rule="evenodd" d="M11.9679 2.6665C10.2971 2.6665 8.86341 2.75429 7.66545 3.02053C6.45236 3.29013 5.40079 3.76012 4.5805 4.58041C3.7602 5.4007 3.29022 6.45227 3.02062 7.66536C2.99849 7.76497 2.97766 7.86491 2.9581 7.96513C2.67226 9.43005 3.9185 10.6665 5.41103 10.6665H26.6346C28.1074 10.6665 29.3313 9.46154 29.0519 8.01553C29.0293 7.89829 29.005 7.78153 28.9793 7.66536C28.7095 6.45227 28.2397 5.4007 27.4193 4.58041C26.599 3.76012 25.5474 3.29013 24.3343 3.02053C23.1363 2.75429 21.7027 2.6665 20.0319 2.6665H11.9679Z" fill="#F7F7F7"/>
</svg>
